<svg xmlns="http://www.w3.org/2000/svg" viewBox="0 0 331 87">
    <path class="a" d="M74.491,77.7L76.8,66.81a0.89,0.89,0,0,1,.913-0.8h7.437c0.388,0,.6.1,0.6,0.33a1.4,1.4,0,0,1-.252.738,0.609,0.609,0,0,1-.5.136H78.045l-0.932,4.33h5.5c0.388,0,.583.1,0.583,0.311a1.268,1.268,0,0,1-.233.718,0.661,0.661,0,0,1-.485.136H76.86l-0.99,4.66h6.971c0.388,0,.6.1,0.6,0.33a1.4,1.4,0,0,1-.252.738,0.609,0.609,0,0,1-.5.136H75.209A0.648,0.648,0,0,1,74.491,77.7Z"/>
    <path class="a" d="M90.939,69.1a3.008,3.008,0,0,1,3.243,3.126,13.129,13.129,0,0,1-.563,2.835,10.564,10.564,0,0,0-.466,2.1c0,0.524.272,0.68,0.816,0.718a0.76,0.76,0,0,1-.835.854,1.214,1.214,0,0,1-1.243-1.379,11.727,11.727,0,0,1,.5-2.466,11.193,11.193,0,0,0,.485-2.427,1.966,1.966,0,0,0-2.117-2.175c-1.418,0-2.369.738-3.243,2.233l-1.165,5.534a0.583,0.583,0,0,1-.583.6H85.618a0.455,0.455,0,0,1-.524-0.6l1.864-8.738a0.434,0.434,0,0,1,.272-0.058c0.485,0,.913.233,0.7,1.34l-0.058.252A3.606,3.606,0,0,1,90.939,69.1Z"/>
    <path class="a" d="M99.432,76.635L97.568,73.82l-0.893,4.233a0.583,0.583,0,0,1-.583.6H95.937a0.455,0.455,0,0,1-.524-0.6l2.563-12.1a0.583,0.583,0,0,1,.583-0.6h0.155a0.455,0.455,0,0,1,.524.6l-1.612,7.573,5.5-4.427a0.65,0.65,0,0,1,.583.641,1.37,1.37,0,0,1-.68.951L99,73.878l1.651,2.427c0.854,1.282,1.107,1.359,2,1.4a0.869,0.869,0,0,1-.932,1.029C100.946,78.732,100.616,78.422,99.432,76.635Z"/>
    <path class="a" d="M104.127,76.635l2.272-10.68a0.583,0.583,0,0,1,.583-0.6h0.155a0.455,0.455,0,0,1,.524.6l-2.272,10.66c-0.194.913-.019,1.243,0.932,1.243a0.8,0.8,0,0,1-.913.874C104.263,78.732,103.836,77.995,104.127,76.635Z"/>
    <path class="a" d="M111.532,78.81a3.615,3.615,0,0,1-3.709-3.922c0-2.854,2.194-5.787,5.243-5.787a3.515,3.515,0,0,1,3.282,1.942l0.1-.485c0.194-.951.485-1.3,1.01-1.3a0.822,0.822,0,0,1,.485.155l-1.534,7.2c-0.194.913-.019,1.223,0.835,1.243a0.773,0.773,0,0,1-.874.874c-1.029,0-1.476-.7-1.262-1.9A4.188,4.188,0,0,1,111.532,78.81Zm1.456-8.6c-2.427,0-3.884,2.447-3.884,4.66a2.592,2.592,0,0,0,2.583,2.835,4.348,4.348,0,0,0,4-3.553l0.33-1.534A2.992,2.992,0,0,0,112.988,70.208Z"/>
    <path class="a" d="M124.012,69.1a1.15,1.15,0,0,1,1.34.874,0.8,0.8,0,0,1-.5.835,1.555,1.555,0,0,0-1.2-.5c-1.5,0-2.5,1.9-3.049,4.5l-0.68,3.243a0.583,0.583,0,0,1-.583.6h-0.155a0.455,0.455,0,0,1-.524-0.6l1.864-8.738a0.434,0.434,0,0,1,.272-0.058c0.485,0,.913.233,0.7,1.34l-0.078.369A2.881,2.881,0,0,1,124.012,69.1Z"/>
    <path class="a" d="M126.309,74.965a2.546,2.546,0,0,0,2.777,2.757,3.575,3.575,0,0,0,3.126-1.534,0.684,0.684,0,0,1,.66.6,1.059,1.059,0,0,1-.427.816,4.485,4.485,0,0,1-3.4,1.2c-2.621,0-4.02-1.592-4.02-3.767a5.8,5.8,0,0,1,5.825-5.942c2.078,0,3.3.99,3.3,2.447,0,1.845-1.223,2.952-5.379,2.952a23.088,23.088,0,0,1-2.427-.136C126.328,74.558,126.309,74.771,126.309,74.965Zm2.35-1.534c3.34,0,4.214-.893,4.214-1.864,0-.68-0.68-1.359-2.078-1.359A4.558,4.558,0,0,0,126.6,73.3,16.8,16.8,0,0,0,128.658,73.431Z"/>
    <path class="a" d="M133.2,80.752l2.136-4.078c0.039-.078,1.2,0,1.2.641a1.34,1.34,0,0,1-.369.874l-2.388,2.952C133.667,81.276,133.084,80.966,133.2,80.752Z"/>
    <path class="a" d="M142.232,77.606a1.351,1.351,0,0,1-.466-0.874,0.784,0.784,0,0,1,.7-0.738,3.687,3.687,0,0,0,3.282,1.748c1.437,0,2.252-.641,2.252-1.573,0-.854-0.854-1.184-2.214-1.651-1.34-.466-2.8-1.01-2.8-2.68,0-1.592,1.437-2.738,3.456-2.738a4.367,4.367,0,0,1,3.068,1.087,1.334,1.334,0,0,1,.466.932,0.676,0.676,0,0,1-.738.66,3.222,3.222,0,0,0-2.893-1.612c-1.418,0-2.136.738-2.136,1.515,0,0.913.932,1.282,2.291,1.767,1.32,0.466,2.719,1.01,2.719,2.563,0,1.689-1.34,2.8-3.553,2.8A4.93,4.93,0,0,1,142.232,77.606Z"/>
    <path class="a" d="M150.826,74.519a5.392,5.392,0,0,1,5.243-5.4,4.366,4.366,0,0,1,3.2,1.165,2.387,2.387,0,0,1,.777,1.592,0.71,0.71,0,0,1-.932.718,2.832,2.832,0,0,0-3.01-2.35,4.117,4.117,0,0,0-3.981,4.194,3.042,3.042,0,0,0,3.2,3.223,3.406,3.406,0,0,0,3.01-1.748,0.675,0.675,0,0,1,.718.6,1.694,1.694,0,0,1-.6,1.049,4.7,4.7,0,0,1-3.243,1.243A4.142,4.142,0,0,1,150.826,74.519Z"/>
    <path class="a" d="M167.462,77.354a11.727,11.727,0,0,1,.5-2.466,11.193,11.193,0,0,0,.485-2.427,1.966,1.966,0,0,0-2.117-2.175c-1.418,0-2.369.738-3.243,2.233l-1.165,5.534a0.583,0.583,0,0,1-.583.6H161.19a0.455,0.455,0,0,1-.524-0.6l2.563-12.1a0.583,0.583,0,0,1,.583-0.6h0.155a0.455,0.455,0,0,1,.524.6l-1.049,4.913A3.6,3.6,0,0,1,166.51,69.1a3.008,3.008,0,0,1,3.243,3.126,13.129,13.129,0,0,1-.563,2.835,10.564,10.564,0,0,0-.466,2.1c0,0.524.272,0.68,0.816,0.718a0.76,0.76,0,0,1-.835.854A1.214,1.214,0,0,1,167.462,77.354Z"/>
    <path class="a" d="M168.718,82.092a0.735,0.735,0,0,1-.233-0.544,0.719,0.719,0,0,1,.524-0.66,1.709,1.709,0,0,0,1.068.5c0.757,0,1.476-.544,3.049-2.835l0.31-.447a0.8,0.8,0,0,1-.679-0.835l-0.544-5.107c-0.136-1.34-.563-1.9-1.456-1.9a0.847,0.847,0,0,1,.971-1.01c0.932,0,1.533.913,1.728,3.029l0.466,5.146,4.971-8.156a0.674,0.674,0,0,1,.835.621,1.776,1.776,0,0,1-.368.893l-5.011,8.02c-1.863,2.971-2.815,3.728-4.193,3.728A2,2,0,0,1,168.718,82.092Z"/>
    <path class="a" d="M179.787,77.606a1.351,1.351,0,0,1-.466-0.874,0.784,0.784,0,0,1,.7-0.738,3.687,3.687,0,0,0,3.281,1.748c1.438,0,2.252-.641,2.252-1.573,0-.854-0.854-1.184-2.213-1.651-1.34-.466-2.8-1.01-2.8-2.68,0-1.592,1.436-2.738,3.456-2.738a4.369,4.369,0,0,1,3.069,1.087,1.336,1.336,0,0,1,.466.932,0.677,0.677,0,0,1-.739.66,3.22,3.22,0,0,0-2.893-1.612c-1.417,0-2.136.738-2.136,1.515,0,0.913.932,1.282,2.291,1.767,1.32,0.466,2.719,1.01,2.719,2.563,0,1.689-1.339,2.8-3.554,2.8A4.931,4.931,0,0,1,179.787,77.606Z"/>
    <path class="a" d="M188.408,77.606a1.351,1.351,0,0,1-.466-0.874,0.784,0.784,0,0,1,.7-0.738,3.687,3.687,0,0,0,3.281,1.748c1.438,0,2.252-.641,2.252-1.573,0-.854-0.854-1.184-2.213-1.651-1.34-.466-2.8-1.01-2.8-2.68,0-1.592,1.436-2.738,3.456-2.738a4.369,4.369,0,0,1,3.069,1.087,1.336,1.336,0,0,1,.466.932,0.677,0.677,0,0,1-.739.66,3.22,3.22,0,0,0-2.893-1.612c-1.417,0-2.136.738-2.136,1.515,0,0.913.932,1.282,2.291,1.767,1.32,0.466,2.719,1.01,2.719,2.563,0,1.689-1.339,2.8-3.554,2.8A4.931,4.931,0,0,1,188.408,77.606Z"/>
    <path class="a" d="M197.725,75.451l1.049-4.99h-0.8c-0.368,0-.563-0.1-0.563-0.311a1.191,1.191,0,0,1,.233-0.68,0.608,0.608,0,0,1,.466-0.136h0.893l0.194-.913c0.194-.951.5-1.3,1.029-1.3a0.823,0.823,0,0,1,.486.155l-0.446,2.058h2.33c0.368,0,.563.1,0.563,0.311a1.191,1.191,0,0,1-.233.68,0.608,0.608,0,0,1-.466.136h-2.427l-1.068,4.99c-0.35,1.651.136,2.272,1.184,2.272a1.807,1.807,0,0,0,1.282-.563,0.634,0.634,0,0,1,.291.583,0.817,0.817,0,0,1-.272.6,2.137,2.137,0,0,1-1.495.466C198.23,78.81,197.259,77.684,197.725,75.451Z"/>
    <path class="a" d="M206.631,78.81a3.615,3.615,0,0,1-3.708-3.922c0-2.854,2.195-5.787,5.243-5.787a3.514,3.514,0,0,1,3.281,1.942l0.1-.485c0.194-.951.486-1.3,1.01-1.3a0.823,0.823,0,0,1,.486.155l-1.534,7.2c-0.194.913-.019,1.223,0.835,1.243a0.774,0.774,0,0,1-.874.874c-1.03,0-1.476-.7-1.263-1.9A4.186,4.186,0,0,1,206.631,78.81Zm1.457-8.6c-2.427,0-3.884,2.447-3.884,4.66a2.592,2.592,0,0,0,2.582,2.835,4.349,4.349,0,0,0,4-3.553l0.33-1.534A2.992,2.992,0,0,0,208.088,70.208Z"/>
    <path class="a" d="M219.112,69.1a1.15,1.15,0,0,1,1.339.874,0.8,0.8,0,0,1-.5.835,1.556,1.556,0,0,0-1.2-.5c-1.495,0-2.5,1.9-3.048,4.5l-0.68,3.243a0.582,0.582,0,0,1-.582.6h-0.155a0.455,0.455,0,0,1-.525-0.6l1.864-8.738a0.434,0.434,0,0,1,.272-0.058c0.486,0,.912.233,0.7,1.34l-0.078.369A2.881,2.881,0,0,1,219.112,69.1Z"/>
    <path class="a" d="M221.409,74.965a2.546,2.546,0,0,0,2.776,2.757,3.574,3.574,0,0,0,3.127-1.534,0.684,0.684,0,0,1,.66.6,1.058,1.058,0,0,1-.427.816,4.485,4.485,0,0,1-3.4,1.2c-2.622,0-4.02-1.592-4.02-3.767a5.8,5.8,0,0,1,5.825-5.942c2.078,0,3.3.99,3.3,2.447,0,1.845-1.223,2.952-5.379,2.952a23.087,23.087,0,0,1-2.427-.136C221.429,74.558,221.409,74.771,221.409,74.965Zm2.35-1.534c3.34,0,4.213-.893,4.213-1.864,0-.68-0.68-1.359-2.078-1.359A4.559,4.559,0,0,0,221.7,73.3,16.8,16.8,0,0,0,223.759,73.431Z"/>
    <path class="a" d="M233.043,75.334c0-2.272,1.553-3.456,4.039-4.078a3.933,3.933,0,0,1-.621-2.1,3.351,3.351,0,0,1,3.456-3.379,2.626,2.626,0,0,1,2.815,2.68c0,1.806-1.243,2.913-3.728,3.4l2.777,3.592a7.87,7.87,0,0,0,1.728-3.922,0.725,0.725,0,0,1,.952.718,7.322,7.322,0,0,1-2,4.058l0.078,0.117c0.7,0.893,1.165,1.32,2.077,1.32a0.721,0.721,0,0,1-.8.913c-0.951,0-1.417-.5-2.1-1.379l-0.116-.136a6.434,6.434,0,0,1-4.467,1.67C234.539,78.81,233.043,77.354,233.043,75.334Zm7.923,0.971-3.282-4.194c-2.135.466-3.378,1.456-3.378,3.185,0,1.262.912,2.388,2.971,2.388A5.074,5.074,0,0,0,240.966,76.305Zm0.564-7.825a1.582,1.582,0,0,0-1.729-1.612,2.115,2.115,0,0,0-2.077,2.194,3,3,0,0,0,.64,1.942C240.461,70.6,241.53,70.091,241.53,68.48Z"/>
    <path class="a" d="M257.882,70.557c0.194-.951.486-1.3,1.01-1.3a0.823,0.823,0,0,1,.486.155l-1.923,9.01c-0.544,2.544-2.136,4.039-4.7,4.039a4.739,4.739,0,0,1-3.456-1.2,1.906,1.906,0,0,1-.66-1.243,0.87,0.87,0,0,1,.912-0.913c0.369,1.34,1.36,2.214,3.321,2.214,1.709,0,2.913-.99,3.34-3.01l0.33-1.534a4.016,4.016,0,0,1-3.4,1.786,3.81,3.81,0,0,1-3.845-4.1,5.442,5.442,0,0,1,5.2-5.359,3.514,3.514,0,0,1,3.281,1.942Zm-3.456-.35c-2.271,0-3.845,2.194-3.845,4.253a2.774,2.774,0,0,0,2.719,2.99,3.92,3.92,0,0,0,3.767-3.126l0.388-1.728A3.006,3.006,0,0,0,254.426,70.208Z"/>
    <path class="a" d="M265.389,69.1a1.15,1.15,0,0,1,1.34.874,0.794,0.794,0,0,1-.506.835,1.553,1.553,0,0,0-1.2-.5c-1.5,0-2.505,1.9-3.049,4.5l-0.679,3.243a0.584,0.584,0,0,1-.583.6h-0.155a0.455,0.455,0,0,1-.524-0.6l1.864-8.738a0.434,0.434,0,0,1,.272-0.058c0.485,0,.913.233,0.7,1.34l-0.078.369A2.881,2.881,0,0,1,265.389,69.1Z"/>
    <path class="a" d="M270.192,78.81a3.615,3.615,0,0,1-3.708-3.922c0-2.854,2.195-5.787,5.243-5.787a3.514,3.514,0,0,1,3.281,1.942l0.1-.485c0.194-.951.486-1.3,1.01-1.3a0.823,0.823,0,0,1,.486.155l-1.534,7.2c-0.194.913-.019,1.223,0.835,1.243a0.774,0.774,0,0,1-.874.874c-1.03,0-1.476-.7-1.263-1.9A4.186,4.186,0,0,1,270.192,78.81Zm1.457-8.6c-2.427,0-3.884,2.447-3.884,4.66a2.592,2.592,0,0,0,2.582,2.835,4.349,4.349,0,0,0,4-3.553l0.33-1.534A2.992,2.992,0,0,0,271.649,70.208Z"/>
    <path class="a" d="M278.188,75.451l1.049-4.99h-0.8c-0.368,0-.563-0.1-0.563-0.311a1.191,1.191,0,0,1,.233-0.68,0.608,0.608,0,0,1,.466-0.136h0.893l0.194-.913c0.194-.951.5-1.3,1.029-1.3a0.823,0.823,0,0,1,.486.155l-0.446,2.058h2.33c0.368,0,.563.1,0.563,0.311a1.191,1.191,0,0,1-.233.68,0.608,0.608,0,0,1-.466.136H280.5l-1.068,4.99c-0.35,1.651.136,2.272,1.184,2.272a1.807,1.807,0,0,0,1.282-.563,0.634,0.634,0,0,1,.291.583,0.817,0.817,0,0,1-.272.6,2.137,2.137,0,0,1-1.495.466C278.693,78.81,277.722,77.684,278.188,75.451Z"/>
    <path class="a" d="M283.765,76.635l1.438-6.777a0.582,0.582,0,0,1,.582-0.6h0.155a0.455,0.455,0,0,1,.525.6l-1.437,6.757c-0.194.913-.02,1.243,0.932,1.243a0.8,0.8,0,0,1-.912.874C283.9,78.732,283.474,77.995,283.765,76.635Zm2-10.272a0.9,0.9,0,0,1,.893-0.99,0.689,0.689,0,0,1,.854.641,0.9,0.9,0,0,1-.893.99A0.69,0.69,0,0,1,285.766,66.363Z"/>
    <path class="a" d="M287.427,77.606a1.351,1.351,0,0,1-.466-0.874,0.784,0.784,0,0,1,.7-0.738,3.687,3.687,0,0,0,3.281,1.748c1.438,0,2.252-.641,2.252-1.573,0-.854-0.854-1.184-2.213-1.651-1.34-.466-2.8-1.01-2.8-2.68,0-1.592,1.436-2.738,3.456-2.738a4.369,4.369,0,0,1,3.069,1.087,1.336,1.336,0,0,1,.466.932,0.677,0.677,0,0,1-.739.66,3.22,3.22,0,0,0-2.893-1.612c-1.417,0-2.136.738-2.136,1.515,0,0.913.932,1.282,2.291,1.767,1.32,0.466,2.719,1.01,2.719,2.563,0,1.689-1.339,2.8-3.554,2.8A4.931,4.931,0,0,1,287.427,77.606Z"/>
    <path class="b" d="M318.864,46.2c-0.029.769-1.3,1.142-2.169,0.885s-0.913-.97-0.917-1.7c-0.02-4.458,0-8.914-.089-13.37a19.788,19.788,0,0,0-.553-4.093c-1-4.279-4.243-4.3-6.869-2.487-1.807,1.245-2.721,3.221-3.65,5.132a2.242,2.242,0,0,0-.052.911q0,7.009,0,14.017c0,1.227-.369,1.617-1.478,1.627-1.163.01-1.559-.351-1.566-1.537-0.015-3.043.029-6.087-.015-9.129-0.034-2.178-.082-4.364-0.3-6.529a12.154,12.154,0,0,0-.943-3.531c-0.8-1.865-2.292-2.43-4.26-1.858a6.974,6.974,0,0,0-3.482,2.477,9.224,9.224,0,0,0-2.291,6.374c0.112,4.1.06,8.049,0.056,12.076,0,1.33-.41,1.695-1.723,1.664a1.17,1.17,0,0,1-1.3-1.233c-0.01-.154-0.011-0.308-0.011-0.462q0-10.512,0-21.024c0-1.4.38-1.719,1.779-1.676a1.138,1.138,0,0,1,1.238,1.193c0.044,0.642.01,1.288,0.01,2.215,0.337-.428.522-0.673,0.719-0.909,2.269-2.72,5.017-4.219,8.694-3.408a4.983,4.983,0,0,1,3.426,2.575c0.293,0.53.55,1.08,0.845,1.665,0.661-.727,1.261-1.462,1.938-2.117a8.268,8.268,0,0,1,8.224-2.042,5.889,5.889,0,0,1,4,4.134,14.523,14.523,0,0,1,.694,3.891c0.024,0.628.047,1.245,0.047,1.871V46.2"/>
    <path class="b" d="M144.624,43.814a10.231,10.231,0,0,1-12.742,3.523,7.127,7.127,0,0,1-4.558-7.034A7.375,7.375,0,0,1,132.5,33.09c3.856-1.344,7.533-1,12.119,1.181-0.1-2.209.444-4.408-.634-6.426-1.385-2.593-3.8-3.486-6.578-3.513a10.975,10.975,0,0,0-6.026,1.511c-0.773.477-1.663,0.061-2.184-.913-0.353-.658-0.153-1.144.737-1.587a16.292,16.292,0,0,1,11.44-1.28,8.038,8.038,0,0,1,6.2,7.9c0.121,5.286.056,10.575,0.048,15.864,0,0.969-.432,1.295-1.5,1.292s-1.456-.337-1.49-1.311c-0.024-.663,0-1.328,0-1.992h0Zm0.077-5.671a1.53,1.53,0,0,0-.433-1.255c-3.454-1.86-7.09-2.5-10.837-.986a4.653,4.653,0,0,0-2.908,3.964,4.262,4.262,0,0,0,2.144,4.268,7.644,7.644,0,0,0,8.744-.479,9.679,9.679,0,0,0,2.671-3.037,4.98,4.98,0,0,0,.6-1.91A5.269,5.269,0,0,0,144.7,38.144Z"/>
    <path class="b" d="M280.814,43.982a31.294,31.294,0,0,1-3.422,2.919,10.158,10.158,0,0,1-11.374-.824A7.156,7.156,0,0,1,263.624,39a7.027,7.027,0,0,1,5-5.868,13.746,13.746,0,0,1,11.544.849c0.157,0.088.324,0.159,0.628,0.308-0.058-2.03.345-4-.371-5.873-0.958-2.5-3.02-3.673-5.557-3.987a11.1,11.1,0,0,0-7.231,1.38,1.576,1.576,0,0,1-2.261-.894c-0.35-.675-0.136-1.127.848-1.614a16.215,16.215,0,0,1,11.263-1.255,8,8,0,0,1,6.268,7.842c0.14,5.315.063,10.637,0.056,15.955,0,0.962-.437,1.28-1.519,1.275-1.049-.006-1.442-0.348-1.474-1.328-0.022-.66,0-1.321,0-1.808h0Zm0.074-5.844a1.477,1.477,0,0,0-.434-1.251c-3.454-1.86-7.09-2.494-10.837-.983a4.652,4.652,0,0,0-2.905,3.967,4.261,4.261,0,0,0,2.148,4.266,7.642,7.642,0,0,0,8.743-.483,9.4,9.4,0,0,0,2.275-2.39,6.527,6.527,0,0,0,.953-2.318A4.669,4.669,0,0,0,280.888,38.138Z"/>
    <path class="b" d="M111.642,34.866a3.093,3.093,0,0,0-1.557,2.957c0.122,2.547.041,5.1,0.033,7.654,0,1.411-.853,2.048-2.19,1.571-0.8-.285-0.842-1.218-0.842-1.912q0-18.123,0-36.244c0-.277,0-0.554.016-0.83a1.18,1.18,0,0,1,1.427-1.186c1.056,0.02,1.474.289,1.578,1.138a6.954,6.954,0,0,1,.015.829q0,11.3,0,22.594v1.186c1.825-1.493,3.508-2.864,5.188-4.24,1.86-1.523,3.772-2.991,5.56-4.595a5.1,5.1,0,0,1,4.155-1.025c0.607,0.046.655,0.4,0.308,0.811a6.191,6.191,0,0,1-.814.748c-3.5,2.876-7,5.748-10.578,8.679,0.2,0.23.352,0.441,0.533,0.626q5.925,6.108,11.843,12.218a1.677,1.677,0,0,1,.479.8c0.014,0.413-.674.407-1.022,0.464a3.976,3.976,0,0,1-3.736-1.514c-3.389-3.582-6.863-7.084-10.31-10.622"/>
    <path class="b" d="M85.442,26.143c1.483-2.082,3.039-3.682,5.341-4.166,3.962-.835,7.726-0.539,10.689,2.627a9.8,9.8,0,0,1,2.487,6.505c0.171,4.851.147,9.709,0.171,14.564,0.006,1.094-.452,1.456-1.572,1.445a1.274,1.274,0,0,1-1.481-1.54c-0.011-3.535.068-7.072-.036-10.6a20.813,20.813,0,0,0-.7-5.174c-1.962-6.742-9-6.582-12.444-2.734a24.5,24.5,0,0,0-2.254,3.241,2.061,2.061,0,0,0-.2,1.056c-0.013,4.7-.006,9.406-0.01,14.11,0,1.241-.358,1.632-1.456,1.647-1.214.017-1.57-.326-1.574-1.608-0.01-4.243,0-8.485,0-12.728,0-2.827-.009-5.656,0-8.484,0.006-1.266.353-1.583,1.606-1.563a1.2,1.2,0,0,1,1.422,1.385c0.013,0.307,0,.615,0,0.922,0,0.272,0,.543,0,1.1"/>
    <path class="b" d="M160.631,21.583a10.716,10.716,0,0,1,6.082,1.621c1.057,0.706,1.268,1.277.761,2.007-0.767,1.1-1.328,1.192-2.447.527a7.653,7.653,0,0,0-7.842-.317c-2.522,1.32-2.668,3.754-.3,5.312,1.532,1.006,3.269,1.7,4.9,2.56,1.658,0.873,3.357,1.691,4.941,2.685,4.764,2.993,2.626,9.551-.965,11.176a13.328,13.328,0,0,1-8.061.816,11.612,11.612,0,0,1-6.5-3.635,1.163,1.163,0,0,1-.016-1.909c0.142-.163.29-0.32,0.442-0.472,0.779-.782,1.073-0.79,1.814.008a10.592,10.592,0,0,0,4.219,3.061,7.992,7.992,0,0,0,6.787-.594c2.544-1.425,2.887-4.284.6-6.073a36.018,36.018,0,0,0-4.927-2.87c-2.018-1.111-4.164-2.025-6.066-3.3-2-1.34-2.39-3.045-1.719-5.347a7.3,7.3,0,0,1,6.632-5.17c0.554-.047,1.111-0.058,1.667-0.086"/>
    <path class="b" d="M181.462,21.583a10.632,10.632,0,0,1,6.073,1.65c1,0.681,1.212,1.237.745,1.943-0.737,1.114-1.352,1.234-2.433.583A7.672,7.672,0,0,0,178,25.4c-2.576,1.323-2.723,3.8-.3,5.361,1.644,1.06,3.5,1.793,5.241,2.708,1.55,0.816,3.124,1.6,4.6,2.539,4.634,2.934,2.662,9.357-.883,11.085a12.643,12.643,0,0,1-6.86,1.08,11.556,11.556,0,0,1-7.832-3.9,1.245,1.245,0,0,1,.082-1.837c0.309-.336,1.061-1.2,1.6-0.937a2.61,2.61,0,0,1,.659.565,9.52,9.52,0,0,0,5.42,3.3,7.867,7.867,0,0,0,5.844-1.167,3.41,3.41,0,0,0,.622-5.521c-1.452-1.537-3.418-2.263-5.255-3.2-2.081-1.057-4.2-2.078-6.161-3.323-1.936-1.226-2.3-3.144-1.689-5.283a7.308,7.308,0,0,1,6.6-5.207c0.584-.053,1.172-0.061,1.759-0.089"/>
    <path class="b" d="M75.6,27.182q0-8.988,0-17.974a1.863,1.863,0,0,1,2.942-1.6c0.843,0.52.6,1.87,0.6,2.7q0,2.169,0,4.338,0,4.337,0,8.675,0,8.675.017,17.349,0.007,2.255.018,4.511c0.01,2.077-1.17,2.144-2.778,1.832a1.176,1.176,0,0,1-.8-1.393c0.01-2.089,0-4.178,0-6.268V27.182"/>
    <path class="b" d="M250.942,26.068c0.621-.715,1.08-1.283,1.58-1.814a8.244,8.244,0,0,1,5.755-2.587,31.183,31.183,0,0,1,3.242-.012c1.024,0.05,1.582.582,1.474,1.265a1.4,1.4,0,0,1-1.787,1.335c-4.448-.8-7.586,1.6-9.535,4.978a5.231,5.231,0,0,0-.743,2.779c0.048,4.455.022,8.91,0.02,13.367,0,1.44-.425,1.829-1.825,1.742a1.128,1.128,0,0,1-1.188-1.147c-0.015-.184-0.021-0.369-0.021-0.553q0-10.507,0-21.017c0-1.4.379-1.717,1.779-1.675a1.139,1.139,0,0,1,1.238,1.193c0.044,0.642.01,1.288,0.01,2.146"/>
    <path class="b" d="M241.5,25.693c0-.774-0.027-1.325.006-1.874a1.144,1.144,0,0,1,1.411-1.085,1.164,1.164,0,0,1,1.438,1.058,3.617,3.617,0,0,1,.022.368c-0.014,7.224.06,14.448-.066,21.669-0.118,6.779-4.5,10.838-11.331,10.747a11.982,11.982,0,0,1-9.967-4.921,1.332,1.332,0,0,1-.3-1.254,1.736,1.736,0,0,1,1.1-.354,2.738,2.738,0,0,1,2.461.946,9.592,9.592,0,0,0,12.008,1.178,6.552,6.552,0,0,0,3.185-5.609c0.034-1.135.006-2.27,0.006-3.53a2.335,2.335,0,0,0-.372.312c-3.827,5.191-10.736,4.786-14.778,1.637-4.379-3.413-5.7-8.062-4.711-13.332,0.935-4.958,3.8-8.436,8.876-9.659,4.134-.993,7.772-0.04,10.585,3.321A5.62,5.62,0,0,0,241.5,25.693Zm0.222,9.791a12.876,12.876,0,0,0-1.144-6.3,8.267,8.267,0,0,0-14.3-1.271,11.51,11.51,0,0,0-.087,12.828,8.456,8.456,0,0,0,12.912,1.23,9.516,9.516,0,0,0,2.623-6.49h0Z"/>
    <path class="b" d="M205.446,48.4a13.482,13.482,0,1,1,13.559-13.482A13.535,13.535,0,0,1,205.446,48.4h0Zm0-24.011a10.53,10.53,0,1,0,10.589,10.529,10.572,10.572,0,0,0-10.589-10.529h0Z"/>
    <path class="a" d="M321.283,21a4.772,4.772,0,0,1,1.7-6.479,4.632,4.632,0,0,1,4.171-.26,4.742,4.742,0,0,1,1.5,1.012,4.8,4.8,0,0,1,1,1.511,4.666,4.666,0,0,1,.372,1.839,4.714,4.714,0,0,1-.239,1.49,4.559,4.559,0,0,1-.675,1.3,5.121,5.121,0,0,1-1.014,1.018,4.428,4.428,0,0,1-1.293.674,4.665,4.665,0,0,1-1.48.237,4.548,4.548,0,0,1-2.348-.63A4.649,4.649,0,0,1,321.283,21Zm0.163-2.376a3.916,3.916,0,0,0,.521,1.977,3.863,3.863,0,0,0,1.415,1.438,3.863,3.863,0,0,0,3.469.216,3.915,3.915,0,0,0,1.248-.84,4.018,4.018,0,0,0,.833-1.254,3.963,3.963,0,0,0,0-3.068,3.81,3.81,0,0,0-2.081-2.075,3.876,3.876,0,0,0-1.521-.306,3.866,3.866,0,0,0-3.364,1.943A3.869,3.869,0,0,0,321.446,18.627Zm2.289,2.14V16.4a0.253,0.253,0,0,1,.069-0.179,0.228,0.228,0,0,1,.176-0.074h1.828a1.658,1.658,0,0,1,1.116.4,1.406,1.406,0,0,1,.468,1.127,1.734,1.734,0,0,1-.108.628,1.2,1.2,0,0,1-.279.441,1.637,1.637,0,0,1-.329.249,1.3,1.3,0,0,1-.313.126q0.124,0.257.381,0.777c0.17,0.345.3,0.605,0.385,0.776a0.216,0.216,0,0,1-.011.232,0.239,0.239,0,0,1-.212.112H326.46a0.263,0.263,0,0,1-.227-0.185L325.5,19.2h-0.979v1.569a0.25,0.25,0,0,1-.067.176,0.215,0.215,0,0,1-.168.074h-0.32a0.214,0.214,0,0,1-.168-0.076A0.255,0.255,0,0,1,323.735,20.767Zm0.79-2.343h1.282a0.782,0.782,0,0,0,.574-0.216,0.713,0.713,0,0,0,.219-0.53,0.726,0.726,0,0,0-.213-0.546,0.8,0.8,0,0,0-.58-0.206h-1.282v1.5Z"/>
    <path class="b" d="M37.871,59.179a29.834,29.834,0,0,0,21.553-30.39C58.526,14.069,45.415,1.36,30.646.916a29.7,29.7,0,0,0-9.572,58.1,4.348,4.348,0,0,0,5.592-3.958,4.3,4.3,0,0,0-.429-2.108,24.013,24.013,0,0,1-1.09-2.691A39.374,39.374,0,0,1,23.11,38.468c0-5.389,2.524-8.734,6.6-8.734s6.6,3.345,6.6,8.734a37.047,37.047,0,0,1-2.464,11.745c-0.4,1.052-.779,1.947-1.15,2.7a4.484,4.484,0,0,0-.468,2.178,4.438,4.438,0,0,0,5.64,4.087h0Zm-0.078-3.366a1.546,1.546,0,0,1-1.855-2.147,41.211,41.211,0,0,0,3.64-15.2,13.291,13.291,0,0,0-2.81-8.815,9.445,9.445,0,0,0-14.14,0,13.294,13.294,0,0,0-2.81,8.815,42.983,42.983,0,0,0,2.194,12.857,24.451,24.451,0,0,0,1.378,3.267,0.985,0.985,0,0,1-1.163,1.393,26.5,26.5,0,1,1,15.565-.171h0Z"/>
    <path class="b" d="M29.73,13.07a4.5,4.5,0,1,1-4.507,4.5,4.5,4.5,0,0,1,4.507-4.5m0-3.264a7.763,7.763,0,1,0,7.778,7.763A7.779,7.779,0,0,0,29.73,9.806"/>
</svg>