<svg viewBox="0 0 100 43" xmlns="http://www.w3.org/2000/svg" xmlns:xlink="http://www.w3.org/1999/xlink">
<path d="M81.9266402,10.8181011 C83.8799388,10.8181011 85.6357682,11.3546044 87.1957742,12.4259502 C88.7557801,13.498957 89.9636328,14.9423671 90.8176866,16.7578415 C91.6733861,18.5716548 92.1012358,20.5748223 92.1012358,22.7640219 C92.1012358,24.9681706 91.6651582,26.9746601 90.7946486,28.7818294 C89.924139,30.5889988 88.6932482,32.0241038 87.1036219,33.0888056 C85.5139956,34.1535074 83.7269002,34.6850278 81.7439813,34.6850278 C79.4122003,34.6850278 77.3618128,34.0106613 75.5895276,32.6635893 L75.5895276,32.6635893 L75.5895276,43 L69.6852013,43 L69.6852013,11.4376545 L75.4085142,11.4376545 L75.4085142,13.2298748 C77.1643437,11.6220256 79.3381494,10.8181011 81.9266402,10.8181011 Z M56.4070496,10.8181011 C59.7837713,10.8181011 62.5499844,11.9442599 64.7089799,14.1949166 C66.8663299,16.4472342 67.9458276,19.2875464 67.9458276,22.7175139 C67.9458276,26.1773795 66.8679754,29.0376236 64.7089799,31.2965853 C62.5499844,33.555547 59.7837713,34.6850278 56.4070496,34.6850278 C53.030328,34.6850278 50.2674061,33.555547 48.1166384,31.2965853 C45.9658708,29.0376236 44.8913097,26.1790405 44.8913097,22.7175139 C44.8913097,19.2875464 45.9658708,16.4455732 48.1166384,14.1949166 C50.2674061,11.9442599 53.030328,10.8181011 56.4070496,10.8181011 Z M32.8243019,10.8181011 C35.9739341,10.8181011 38.5064753,11.8861248 40.4219257,14.0221724 C42.337376,16.159881 43.2951011,18.9653121 43.2951011,22.4417877 L43.2951011,22.4417877 L43.2951011,23.1992043 L27.9418783,25.1292877 C28.2133983,26.3866656 28.7827675,27.3965544 29.6450493,28.162276 C30.507331,28.9279975 31.613158,29.3100278 32.9608847,29.3100278 C35.0655762,29.3100278 36.5729237,28.3067831 37.4812816,26.3002936 L37.4812816,26.3002936 L43.2951011,26.3002936 C42.5068703,28.8897945 41.1969919,30.932826 39.3654659,32.4343711 C37.53394,33.9342553 35.353552,34.6850278 32.8243019,34.6850278 C31.3399924,34.6850278 29.9247972,34.4126236 28.5770705,33.8694762 C27.2293439,33.3263288 26.0412381,32.5556242 25.0111076,31.5606845 C23.9826227,30.5657447 23.1614804,29.3050448 22.5476806,27.7819067 C21.9338808,26.2571075 21.6278036,24.5844793 21.6278036,22.7623609 C21.6278036,19.2244283 22.6875545,16.3492352 24.8070562,14.1367815 C26.9265579,11.9243279 29.5989732,10.8181011 32.8243019,10.8181011 Z M100,-7.10542736e-15 L100,34.1069994 L94.1861805,34.1069994 L94.1861805,-7.10542736e-15 L100,-7.10542736e-15 Z M12.3105531,0.664400494 C15.4437295,0.664400494 18.0042456,1.66432324 19.9871645,3.66250773 C21.9486909,5.6374382 22.9393276,8.08907602 22.9623657,11.0140992 C22.9409732,13.9391224 21.9486909,16.3907602 19.9871645,18.3656907 C18.0239925,20.3456041 15.496388,21.3438659 12.4043509,21.3637979 L12.4043509,21.3637979 L6.22356794,21.3637979 L6.22356794,34.0173053 L0,34.0173053 L0,0.664400494 Z M80.8125854,16.1947621 C79.1933387,16.1947621 77.9015617,16.8226205 76.9405453,18.0783375 C75.979529,19.3340544 75.4990209,20.9335986 75.4990209,22.878631 C75.4990209,24.8070535 75.9762379,26.3617506 76.9306719,27.5410615 C77.8851059,28.7203724 79.1653639,29.3100278 80.7698004,29.3100278 C82.3742369,29.3100278 83.657786,28.7236944 84.6188023,27.5526885 C85.5798187,26.3816826 86.0603268,24.8087145 86.0603268,22.833784 C86.0603268,20.8887515 85.5896921,19.2958514 84.6517139,18.0550834 C83.71209,16.8143155 82.4334776,16.1947621 80.8125854,16.1947621 Z M56.4070496,16.2396091 C54.8618539,16.2396091 53.5634945,16.8176375 52.5119716,17.9736944 C51.4604486,19.1297512 50.9338643,20.7110244 50.9338643,22.7175139 C50.9338643,24.7539014 51.4604486,26.3534456 52.5119716,27.5178075 C53.5634945,28.6821693 54.8618539,29.2635198 56.4070496,29.2635198 C57.9522454,29.2635198 59.2538959,28.6821693 60.3136468,27.5178075 C61.3733976,26.3551066 61.9032731,24.7539014 61.9032731,22.7175139 C61.9032731,20.7110244 61.3733976,19.1297512 60.3136468,17.9736944 C59.2538959,16.8176375 57.9522454,16.2396091 56.4070496,16.2396091 Z M32.6877191,16.1931011 C31.3251822,16.1931011 30.2275831,16.5734703 29.3949218,17.3308869 C28.5606148,18.0899645 28.0471951,19.1812423 27.849726,20.6047203 L27.849726,20.6047203 L36.9563429,19.4320535 C36.7440636,18.3291486 36.2602643,17.513597 35.5032994,16.9853986 C34.7463345,16.4572002 33.8083562,16.1931011 32.6877191,16.1931011 Z M11.5963732,6.54600587 L6.28116309,6.54600587 L6.28116309,15.3044654 L11.6408037,15.3044654 C13.1481512,15.2961604 14.359295,14.8709441 15.2742352,14.0288164 C16.1414537,13.2298748 16.6022149,12.2249691 16.6548734,11.0140992 L16.6548734,11.0140992 L16.6598101,11.0140992 L16.6598101,10.9260661 L16.6598101,10.9260661 L16.6614557,10.8363721 C16.6038605,9.62550216 16.1430993,8.62059642 15.2758808,7.82165482 C14.3527127,6.97122219 13.1251131,6.54600587 11.5963732,6.54600587 L11.5963732,6.54600587 Z" id="Combined-Shape"></path>
</svg>