<svg xmlns="http://www.w3.org/2000/svg" xmlns:xlink="http://www.w3.org/1999/xlink">
<g>
<path d="M53.7890625,7.04487179 C55.0811363,7.04487179 56.2429836,7.39387115 57.2746394,8.09188034 C58.3062952,8.78988953 59.1050653,9.72969495 59.6709736,10.9113248 C60.2368818,12.0929546 60.5198317,13.3967165 60.5198317,14.8226496 C60.5198317,16.2585542 60.2318739,17.5648089 59.6559495,18.741453 C59.0800252,19.9180971 58.2662312,20.8529168 57.2145433,21.5459402 C56.1628553,22.2389636 54.9809761,22.5854701 53.6688702,22.5854701 C52.1263945,22.5854701 50.7692366,22.146728 49.5973558,21.2692308 L49.5973558,28 L45.6911058,28 L45.6911058,7.44871795 L49.4771635,7.44871795 L49.4771635,8.61538462 C50.6390282,7.56837083 52.0763136,7.04487179 53.7890625,7.04487179 Z M21.469351,7.04487179 C23.5526947,7.04487179 25.2278582,7.74037766 26.4948918,9.13141026 C27.7619254,10.5224429 28.3954327,12.3497038 28.3954327,14.6132479 L28.3954327,15.1068376 L18.2391827,16.3632479 C18.4194721,17.1809158 18.7950693,17.8390288 19.3659856,18.3376068 C19.9369019,18.8361848 20.6680645,19.0854701 21.5594952,19.0854701 C22.9517297,19.0854701 23.9483143,18.4323427 24.5492788,17.1260684 L28.3954327,17.1260684 C27.8745968,18.811262 27.0082192,20.1424453 25.796274,21.1196581 C24.5843289,22.096871 23.1420356,22.5854701 21.469351,22.5854701 C20.4877755,22.5854701 19.5512865,22.4084776 18.6598558,22.0544872 C17.768425,21.7004968 16.9821749,21.1994334 16.3010817,20.5512821 C15.6199886,19.9031307 15.0766246,19.0829822 14.6709736,18.090812 C14.2653225,17.0986418 14.0625,16.0092652 14.0625,14.8226496 C14.0625,12.5192193 14.7636148,10.647087 16.1658654,9.20619658 C17.568116,7.76530619 19.3359268,7.04487179 21.469351,7.04487179 Z M36.5024038,7.04487179 C38.7359887,7.04487179 40.5663991,7.77777045 41.9936899,9.24358974 C43.4209807,10.709409 44.1346154,12.5591056 44.1346154,14.792735 C44.1346154,17.0463076 43.4209807,18.9084684 41.9936899,20.3792735 C40.5663991,21.8500786 38.7359887,22.5854701 36.5024038,22.5854701 C34.268819,22.5854701 32.4409126,21.8500786 31.0186298,20.3792735 C29.5963471,18.9084684 28.8852163,17.0463076 28.8852163,14.792735 C28.8852163,12.5591056 29.5963471,10.709409 31.0186298,9.24358974 C32.4409126,7.77777045 34.268819,7.04487179 36.5024038,7.04487179 Z M66,0 L66,22.208547 L62.1538462,22.208547 L62.1538462,0 L66,0 Z M8.14302885,0.432564103 C10.2163565,0.432564103 11.9090479,1.08319862 13.2211538,2.38448718 C14.5181781,3.6708184 15.1741348,5.26648666 15.1890429,7.17153886 C15.1741348,9.07698839 14.5181781,10.6726567 13.2211538,11.9589879 C11.9819427,13.1879826 10.4032587,13.83661 8.48505906,13.9048866 L8.14302885,13.9109109 L4.116,13.9105641 L4.11658654,22.1505128 L-2.27373675e-13,22.1505128 L-7.10542736e-15,0.432564103 L8.14302885,0.432564103 Z M53.0528846,10.5448718 C51.9811645,10.5448718 51.1273069,10.9536996 50.4912861,11.7713675 C49.8552652,12.5890354 49.5372596,13.6310478 49.5372596,14.8974359 C49.5372596,16.1538524 49.8527613,17.1659506 50.483774,17.9337607 C51.1147868,18.7015708 51.9611325,19.0854701 53.0228365,19.0854701 C54.0845406,19.0854701 54.9333902,18.7040636 55.5694111,17.9412393 C56.2054319,17.178415 56.5234375,16.1538526 56.5234375,14.8675214 C56.5234375,13.6011333 56.2129438,12.5641066 55.5919471,11.7564103 C54.9709504,10.9487139 54.1246047,10.5448718 53.0528846,10.5448718 Z M36.5024038,10.5747863 C35.4807641,10.5747863 34.6218985,10.9512071 33.9257812,11.7040598 C33.229664,12.4569126 32.8816106,13.4864607 32.8816106,14.792735 C32.8816106,16.1189525 33.229664,17.1609649 33.9257812,17.9188034 C34.6218985,18.676642 35.4807641,19.0555556 36.5024038,19.0555556 C37.5240436,19.0555556 38.3854132,18.676642 39.0865385,17.9188034 C39.7876638,17.1609649 40.1382212,16.1189525 40.1382212,14.792735 C40.1382212,13.4864607 39.7876638,12.4569126 39.0865385,11.7040598 C38.3854132,10.9512071 37.5240436,10.5747863 36.5024038,10.5747863 Z M21.3792067,10.5448718 C20.4777599,10.5448718 19.7516053,10.7916642 19.2007212,11.2852564 C18.649837,11.7788486 18.3092955,12.4893116 18.1790865,13.4166667 L24.203726,12.6538462 C24.0635009,11.9358938 23.7429913,11.4049162 23.2421875,11.0608974 C22.7413837,10.7168786 22.1203963,10.5448718 21.3792067,10.5448718 Z M7.66947115,4.26162393 L4.15384615,4.26162393 L4.153,7.1715641 L4.15384615,9.96512821 L7.66947115,9.96512821 L7.91820346,9.95936348 C8.81491876,9.9170888 9.54329982,9.64230311 10.1033654,9.135 C10.6251792,8.66234507 10.9241596,8.07877804 11.0013438,7.38354468 L11.0178462,7.17162393 L15.1890429,7.1719362 L11.017,7.1705641 L11.0185537,7.11398114 L11.0191129,7.09024189 L11.0191129,7.09024189 L11.0198317,7.01854701 L11.0178462,7.05512821 L11.0148462,7.05462393 L11.0134674,6.99698485 C10.966796,6.23412738 10.663431,5.59905524 10.1033654,5.09175214 C9.54329982,4.58444903 8.81491876,4.30966334 7.91820346,4.26738866 L7.66947115,4.26162393 Z"></path>
</g>
</svg>